<svg width="32" height="32" viewBox="0 0 32 32" fill="none" xmlns="http://www.w3.org/2000/svg">
<path d="M32 16.0005C32 24.0813 26.0094 30.7618 18.2278 31.8461C17.4999 31.9475 16.7555 32 16 32C15.1275 32 14.2716 31.93 13.4368 31.7955C5.81919 30.5692 0 23.9634 0 15.9995C0 7.16322 7.16342 0 16 0C24.8366 0 32 7.16322 32 15.9995V16.0005Z" fill="url(#paint0_linear_586_2665)"/>
<path d="M21.0113 6.39583H10.9899C8.22124 6.39583 5.96948 8.64752 5.96948 11.4161V20.5841C5.96948 23.3526 8.22124 25.6043 10.9899 25.6043H21.0113C23.7799 25.6043 26.0317 23.3526 26.0317 20.5841V11.4161C26.0317 8.64752 23.7799 6.39583 21.0113 6.39583ZM7.7403 11.4161C7.7403 9.62411 9.19786 8.16659 10.9899 8.16659H21.0113C22.8033 8.16659 24.2609 9.62411 24.2609 11.4161V20.5841C24.2609 22.376 22.8033 23.8335 21.0113 23.8335H10.9899C9.19786 23.8335 7.7403 22.376 7.7403 20.5841V11.4161Z" fill="white"/>
<path d="M16.0001 20.6706C18.5753 20.6706 20.6704 18.5756 20.6704 16.0005C20.6704 13.4254 18.5753 11.3304 16.0001 11.3304C13.425 11.3304 11.3298 13.4254 11.3298 16.0005C11.3298 18.5756 13.425 20.6706 16.0001 20.6706ZM16.0001 13.102C17.5986 13.102 18.8986 14.402 18.8986 16.0005C18.8986 17.599 17.5986 18.8989 16.0001 18.8989C14.4016 18.8989 13.1016 17.599 13.1016 16.0005C13.1016 14.402 14.4016 13.102 16.0001 13.102Z" fill="white"/>
<path d="M21.1033 12.0839C21.797 12.0839 22.3618 11.5191 22.3618 10.8254C22.3618 10.1316 21.797 9.56685 21.1033 9.56685C20.4095 9.56685 19.8447 10.1316 19.8447 10.8254C19.8447 11.5191 20.4095 12.0839 21.1033 12.0839Z" fill="white"/>
<defs>
<linearGradient id="paint0_linear_586_2665" x1="4.68594" y1="27.3142" x2="27.3134" y2="4.68607" gradientUnits="userSpaceOnUse">
<stop stop-color="#FAAD4F"/>
<stop offset="0.35" stop-color="#DD2A7B"/>
<stop offset="0.62" stop-color="#9537B0"/>
<stop offset="1" stop-color="#515BD4"/>
</linearGradient>
</defs>
</svg>
